<?xml version="1.0" encoding="UTF-8"?>
<svg width="1024" height="1024" version="1.1" viewBox="0 0 270.93 270.93" xmlns="http://www.w3.org/2000/svg"><defs><clipPath id="clipPath2"><path transform="translate(-143.52 -366.02)" d="m0 500h500v-500h-500z"/></clipPath><clipPath id="clipPath4"><path transform="translate(-374.42 -489.21)" d="m0 500h500v-500h-500z"/></clipPath><clipPath id="clipPath6"><path transform="translate(-124.1 -376.65)" d="m0 500h500v-500h-500z"/></clipPath><clipPath id="clipPath8"><path transform="translate(-270.74 -180.97)" d="m0 500h500v-500h-500z"/></clipPath><clipPath id="clipPath10"><path transform="translate(-124.41 -241.39)" d="m0 500h500v-500h-500z"/></clipPath><clipPath id="clipPath12"><path transform="translate(-256.08 -119.19)" d="m0 500h500v-500h-500z"/></clipPath><clipPath id="clipPath14"><path transform="translate(-243.92 -119.56)" d="m0 500h500v-500h-500z"/></clipPath><clipPath id="clipPath16"><path transform="translate(-118.66 -17.814)" d="m0 500h500v-500h-500z"/></clipPath><clipPath id="clipPath18"><path transform="translate(-494.34 -119.14)" d="m0 500h500v-500h-500z"/></clipPath><clipPath id="clipPath20"><path transform="translate(-130.62 -305.06)" d="m0 500h500v-500h-500z"/></clipPath><clipPath id="clipPath22"><path transform="translate(-118.46 -312.85)" d="m0 500h500v-500h-500z"/></clipPath><clipPath id="clipPath24"><path transform="translate(-256.12 -249.59)" d="m0 500h500v-500h-500z"/></clipPath><clipPath id="clipPath26"><path transform="translate(-381.7 -313.27)" d="m0 500h500v-500h-500z"/></clipPath></defs><g fill="#ff6047"><path transform="matrix(.4567 0 0 -.4567 86.837 82.479)" d="m0 0c-2.896 1.493-2.963 5.697-0.132 7.309 0.235 0.134 0.471 0.261 0.71 0.381 33.372 16.816 66.789 33.542 100.13 50.413 4.136 2.093 7.824 2.033 11.881-8e-3 33.232-16.717 66.506-33.351 99.748-50.049 0.474-0.238 0.939-0.499 1.41-0.781 2.637-1.583 2.598-5.521-0.133-6.935-0.016-8e-3 -0.032-0.017-0.048-0.025-33.631-17.122-67.321-34.126-100.92-51.32-4.272-2.187-7.778-2.329-12.17-0.075-33.412 17.15-66.956 34.041-100.43 51.064-0.017 9e-3 -0.034 0.017-0.051 0.026" clip-path="url(#clipPath2)"/><path transform="matrix(.4567 0 0 -.4567 192.29 26.221)" d="m0 0c1.183 0.464 2.5 0.461 3.682-5e-3 1.039-0.41 1.998-0.793 2.915-1.257 32.715-16.57 65.418-33.162 98.124-49.751 0.486-0.246 1.054-0.407 1.437-0.765 1.376-1.286 3.679-2.599 3.735-3.98 0.053-1.281-2.089-3.094-3.66-3.929-11.86-6.308-23.777-12.513-35.755-18.596-20.229-10.273-40.607-20.256-60.72-30.749-5.924-3.091-10.808-3.058-16.765 0.01-31.796 16.376-63.796 32.356-95.671 48.58-0.046 0.024-0.093 0.049-0.14 0.074-3.412 1.833-3.442 6.921-7e-3 8.711 0.019 0.01 0.039 0.02 0.058 0.03 32.688 16.634 65.433 33.158 98.182 49.671 1.482 0.748 3.038 1.349 4.585 1.956" clip-path="url(#clipPath4)"/><path transform="matrix(.4567 0 0 -.4567 77.969 77.626)" d="m0 0c-1.926 0.822-3.797 1.498-5.558 2.391-33.042 16.755-66.081 33.516-99.07 50.373-1.463 0.748-3.334 2.372-3.403 3.673-0.062 1.176 1.859 2.911 3.292 3.645 33.462 17.141 67 34.137 100.45 51.299 3.694 1.895 6.724 1.502 10.236-0.299 32.488-16.658 65.046-33.179 97.526-49.852 0.237-0.121 0.467-0.258 0.69-0.406 3.112-2.07 2.924-6.911-0.382-8.654-0.019-0.01-0.037-0.02-0.056-0.03-32.978-16.883-66.024-33.632-99.071-50.378-1.429-0.725-3.011-1.148-4.655-1.762" clip-path="url(#clipPath6)"/><path transform="matrix(.4567 0 0 -.4567 144.94 166.99)" d="m0 0c-2.971 1.633-3.009 5.952 5e-3 7.505 0.016 9e-3 0.033 0.017 0.05 0.026 32.485 16.572 65.046 32.996 97.439 49.746 5.399 2.791 9.804 2.936 15.251 0.137 32.279-16.582 64.726-32.837 97.065-49.305 1.576-0.802 3.711-2.584 3.688-3.877-0.023-1.363-2.086-3.151-3.665-3.959-32.624-16.691-65.337-33.21-97.944-49.934-4.672-2.396-8.667-2.293-13.315 0.061-32.683 16.559-65.466 32.918-98.189 49.397-0.129 0.065-0.258 0.133-0.385 0.203" clip-path="url(#clipPath8)"/><path transform="matrix(.4567 0 0 -.4567 78.112 139.4)" d="m0 0c2.071-0.873 4.119-1.593 6.039-2.566 32.719-16.596 65.435-33.198 98.094-49.913 0.249-0.128 0.488-0.276 0.718-0.44 2.676-1.907 2.488-6.119-0.423-7.645-0.016-8e-3 -0.032-0.017-0.049-0.025-32.673-16.679-65.43-33.192-98.075-49.924-4.348-2.228-8.009-2.156-12.274 0.03-32.967 16.899-66.016 33.638-98.986 50.531-1.401 0.718-2.907 2.338-3.174 3.761-0.169 0.903 1.657 2.63 2.946 3.291 33.289 17.08 66.621 34.078 99.968 51.046 1.586 0.806 3.376 1.211 5.216 1.854" clip-path="url(#clipPath10)"/><path transform="matrix(.4567 0 0 -.4567 138.24 195.21)" d="m0 0c0 15.803-0.018 31.606 8e-3 47.409 0.012 7.107 1.738 8.174 8.163 4.933 33.064-16.677 66.085-33.441 99.19-50.036 4.434-2.223 6.403-5.159 6.381-10.209-0.134-31.423-0.022-62.848-0.052-94.272-7e-3 -6.551-2.642-8.125-8.623-5.065-33.127 16.948-66.2 34.001-99.345 50.913-3.834 1.956-5.587 4.433-5.522 8.919 0.232 15.8 0.09 31.605 0.09 47.408z" clip-path="url(#clipPath12)"/><path transform="matrix(.4567 0 0 -.4567 132.69 195.04)" d="m0 0c7e-3 -15.803-0.077-31.606 0.065-47.408 0.037-4.112-1.344-6.677-5.114-8.609-33.116-16.978-66.131-34.153-99.235-51.155-7.073-3.633-9.038-2.256-9.047 5.794-0.032 30.7 0.064 61.401-0.134 92.1-0.035 5.425 1.821 8.604 6.721 11.075 32.906 16.597 65.679 33.458 98.516 50.191 6.782 3.456 8.156 2.614 8.196-5.122 0.081-15.621 0.024-31.244 0.032-46.866" clip-path="url(#clipPath14)"/><path transform="matrix(.4567 0 0 -.4567 75.484 241.51)" d="m0 0c-0.021-7.156-2.401-8.71-8.64-5.528-32.992 16.827-65.94 33.74-98.941 50.547-3.842 1.957-5.474 4.641-5.457 9.049 0.119 31.431 0.023 62.863 0.035 94.295 3e-3 7.227 2.129 8.438 8.597 5.129 31.517-16.129 62.942-32.443 94.636-48.215 6.911-3.44 10.039-7.376 9.684-15.353-0.637-14.325 0.132-74.3 0.086-89.924" clip-path="url(#clipPath16)"/><path transform="matrix(.4567 0 0 -.4567 247.06 195.23)" d="m0 0c0-15.622-0.112-31.246 0.069-46.866 0.053-4.567-1.552-7.352-5.681-9.443-32.711-16.57-65.331-33.317-98-49.969-6.853-3.493-9.019-2.045-9.03 5.795-0.045 30.336 0.041 60.673-0.255 91.006-0.06 6.066 1.903 9.576 7.412 12.327 32.153 16.055 64.146 32.432 96.192 48.701 0.81 0.411 1.598 0.868 2.426 1.237 4.854 2.164 6.819 1.015 6.847-4.286 0.069-12.897 4e-3 -25.795-6e-3 -38.693-3e-3 -3.269-1e-3 -6.539-1e-3 -9.809z" clip-path="url(#clipPath18)"/><path transform="matrix(.4567 0 0 -.4567 80.945 110.32)" d="m0 0c0 15.262-0.048 30.524 0.021 45.785 0.033 7.036 1.994 8.217 8.183 5.062 32.675-16.66 65.292-33.436 98.048-49.934 5.178-2.608 7.44-5.773 7.391-11.742-0.244-30.339-0.071-60.682-0.099-91.024-7e-3 -6.95-2.03-8.178-8.239-5.045-32.417 16.359-64.779 32.828-97.25 49.08-5.663 2.835-8.341 6.433-8.124 13.127 0.481 14.883 0.15 29.793 0.15 44.691z" clip-path="url(#clipPath20)"/><path transform="matrix(.4567 0 0 -.4567 75.392 106.77)" d="m0 0c0-15.614 0.053-31.229-0.023-46.843-0.036-7.475-2.26-8.653-8.991-5.21-31.82 16.275-63.595 32.639-95.544 48.657-5.968 2.992-8.402 6.587-8.314 13.45 0.382 29.953 0.169 59.913 0.204 89.871 0.01 8.406 1.89 9.564 9.242 5.817 32.494-16.558 64.953-33.186 97.518-49.604 4.138-2.087 5.814-4.699 5.757-9.297-0.194-15.611-0.074-31.227-0.074-46.841h0.225" clip-path="url(#clipPath22)"/><path transform="matrix(.4567 0 0 -.4567 138.26 135.65)" d="m0 0c0 15.251 0.157 30.504-0.092 45.751-0.078 4.842 1.679 7.644 5.942 9.81 31.22 15.86 62.356 31.885 93.518 47.858 2.743 1.406 5.419 2.97 8.247 4.178 3.556 1.52 5.571 0.072 5.974-3.709 0.076-0.72 0.077-1.451 0.077-2.176 6e-3 -30.865-0.046-61.73 0.07-92.595 0.017-4.528-1.603-7.711-5.551-9.734-33.745-17.292-67.481-34.601-101.27-51.813-4.646-2.367-6.612-0.992-6.642 4.499-0.087 15.977-0.031 31.954-0.031 47.931z" clip-path="url(#clipPath24)"/><path transform="matrix(.4567 0 0 -.4567 195.61 106.57)" d="m0 0c0 15.443 0.131 30.889-0.081 46.329-0.062 4.564 1.416 7.415 5.552 9.502 33.394 16.853 66.711 33.857 100.07 50.777 5.158 2.616 7.08 1.56 7.091-4.16 0.063-32.159 0.109-64.319-0.196-96.475-0.024-2.455-2.214-6.02-4.394-7.154-33.498-17.436-67.147-34.583-100.8-51.714-5.16-2.626-7.22-1.175-7.246 4.929-0.067 15.989-0.022 31.977-0.022 47.966h0.029" clip-path="url(#clipPath26)"/></g></svg>
